<svg width="65" height="59" viewBox="0 0 65 59" fill="none" xmlns="http://www.w3.org/2000/svg">
<path d="M52.1346 26.8523C55.8159 26.4217 58.5222 23.0417 57.2723 19.5524C55.558 14.7667 52.622 10.4674 48.706 7.10847C43.0772 2.28053 35.8367 -0.250419 28.4259 0.0195743C21.0152 0.289568 13.978 3.34069 8.71555 8.56543C3.45307 13.7902 0.351378 20.8052 0.028053 28.2138C-0.295272 35.6224 2.1835 42.881 6.9708 48.5443C11.7581 54.2076 18.5027 57.8602 25.8618 58.7748C33.2208 59.6894 40.6543 57.7988 46.6822 53.4796C50.876 50.4746 54.1754 46.4475 56.3 41.8293C57.8492 38.4621 55.4477 34.8593 51.8178 34.1095C48.188 33.3598 44.732 35.8419 42.5751 38.8562C41.5586 40.2768 40.3089 41.5342 38.8645 42.5691C35.5792 44.9232 31.5279 45.9535 27.5171 45.4551C23.5064 44.9566 19.8305 42.9659 17.2214 39.8793C14.6122 36.7928 13.2613 32.8368 13.4375 28.799C13.6137 24.7613 15.3042 20.938 18.1723 18.0905C21.0404 15.2429 24.8757 13.58 28.9146 13.4329C32.9535 13.2857 36.8997 14.6651 39.9674 17.2964C41.3162 18.4532 42.4516 19.8148 43.3405 21.3185C45.2265 24.5092 48.4532 27.2829 52.1346 26.8523Z" fill="#00CCFF"/>
<path d="M29.8747 38.0225C27.1589 34.5661 29.6212 29.5 34.0169 29.5H58.9999C68.2863 29.5 65.2243 42.5474 60.3345 48.783C58.2911 51.3888 55.5135 49.3429 55.5135 46.0315C55.5135 42.7201 52.8291 40.0357 49.5177 40.0357H34.0169C32.4004 40.0357 30.8734 39.2936 29.8747 38.0225Z" fill="#66E0FF"/>
</svg>
